# xmcd
#
# Track frame offsets:
#   150
#   17137
#   38871
#   54414
#   71233
#   90501
#   106367
#   129499
#   146809
#   167207
#   181433
#   217574
#   244213
#   270419
#
# Disc length: 3935 seconds
#
# Revision: 0
# Processed by: cddbd v1.5.2PL0 Copyright (c) Steve Scherf et al.
# Submitted via: Media_Universe 3.0
#
DISCID=c50f5d0e
DTITLE=June Graham - Song
DYEAR=1997
DGENRE=Blues
TTITLE0=There is No Greater Love
TTITLE1=Crazy Love
TTITLE2=Jealous Guy
TTITLE3=Gee Baby Ain't  Good To You
TTITLE4=Say It Isn't So
TTITLE5=I Can'y Get Started
TTITLE6=Darn That Dream
TTITLE7=Something To Talk About
TTITLE8=Round Midnight
TTITLE9=Easy Living
TTITLE10=God Bless The Child
TTITLE11=Body and Soul
TTITLE12=Glory of Love
TTITLE13=Song
EXTD=
EXTT0=
EXTT1=
EXTT2=
EXTT3=
EXTT4=
EXTT5=
EXTT6=
EXTT7=
EXTT8=
EXTT9=
EXTT10=
EXTT11=
EXTT12=
EXTT13=
PLAYORDER=
